<?xml version="1.0" encoding="utf-8"?>
<!-- Generator: Adobe Illustrator 26.0.1, SVG Export Plug-In . SVG Version: 6.00 Build 0)  -->
<svg version="1.1" id="Capa_1" xmlns="http://www.w3.org/2000/svg" xmlns:xlink="http://www.w3.org/1999/xlink" x="0px" y="0px"
	 viewBox="0 0 166.1 78.97" style="enable-background:new 0 0 166.1 78.97;" xml:space="preserve">
<g>
	<path d="M33.42,62.38c-0.37-0.28-0.78-0.51-1.23-0.69c-0.45-0.18-0.9-0.35-1.34-0.5c-0.44-0.15-0.86-0.33-1.23-0.52
		c-0.38-0.19-0.68-0.44-0.9-0.73c-0.23-0.29-0.34-0.68-0.34-1.15c0-0.61,0.22-1.08,0.66-1.42c0.44-0.34,1.02-0.51,1.75-0.51
		c0.62,0,1.16,0.12,1.63,0.37c0.46,0.24,0.89,0.6,1.28,1.06l0.91-0.91c-0.43-0.54-0.96-0.96-1.6-1.28
		c-0.64-0.32-1.37-0.47-2.18-0.47c-0.73,0-1.38,0.13-1.96,0.39c-0.57,0.26-1.02,0.64-1.35,1.12c-0.33,0.49-0.49,1.07-0.49,1.75
		c0,0.65,0.11,1.18,0.34,1.59c0.23,0.41,0.53,0.76,0.9,1.02c0.38,0.27,0.79,0.49,1.23,0.67c0.44,0.18,0.89,0.34,1.34,0.5
		s0.86,0.34,1.23,0.54c0.37,0.2,0.67,0.46,0.9,0.79c0.23,0.32,0.35,0.73,0.35,1.23c0,0.65-0.25,1.15-0.75,1.52
		c-0.5,0.37-1.15,0.55-1.96,0.55c-0.78,0-1.45-0.15-2.02-0.44c-0.57-0.29-1.06-0.74-1.49-1.33l-0.93,0.91
		c0.54,0.67,1.16,1.19,1.86,1.56c0.71,0.37,1.55,0.56,2.52,0.56c1.27,0,2.27-0.3,3.01-0.9c0.74-0.6,1.11-1.45,1.11-2.53
		c0-0.67-0.12-1.22-0.35-1.65S33.79,62.66,33.42,62.38z"/>
	<polygon points="46.6,57.01 51.03,57.01 51.03,68.36 52.38,68.36 52.38,57.01 56.8,57.01 56.8,55.79 46.6,55.79 	"/>
	<path d="M79.15,57.47c-0.57-0.58-1.24-1.04-2-1.37c-0.76-0.33-1.59-0.49-2.48-0.49c-0.89,0-1.71,0.16-2.47,0.49
		s-1.42,0.79-1.99,1.37s-1.02,1.27-1.33,2.05c-0.32,0.78-0.48,1.63-0.48,2.54c0,0.9,0.16,1.75,0.48,2.53
		c0.32,0.79,0.77,1.47,1.34,2.07c0.57,0.59,1.24,1.05,2,1.39c0.76,0.33,1.59,0.5,2.48,0.5c0.89,0,1.71-0.17,2.47-0.5
		s1.42-0.79,1.98-1.38c0.57-0.58,1.01-1.27,1.33-2.06c0.32-0.79,0.48-1.63,0.48-2.53c0-0.91-0.16-1.76-0.48-2.55
		C80.17,58.74,79.73,58.05,79.15,57.47z M78.94,64.72c-0.42,0.78-1,1.39-1.74,1.85s-1.58,0.68-2.53,0.68
		c-0.69,0-1.34-0.13-1.94-0.38c-0.6-0.26-1.11-0.62-1.55-1.09c-0.44-0.47-0.78-1.02-1.02-1.65c-0.24-0.63-0.37-1.32-0.37-2.07
		c0-1,0.21-1.89,0.63-2.67c0.42-0.78,1-1.39,1.74-1.84c0.74-0.44,1.57-0.67,2.51-0.67c0.72,0,1.37,0.13,1.96,0.38
		c0.59,0.26,1.11,0.62,1.54,1.09c0.44,0.47,0.78,1.02,1.02,1.64s0.37,1.31,0.37,2.06C79.58,63.05,79.36,63.94,78.94,64.72z"/>
	<path d="M101.14,62.3c0.58-0.29,1.03-0.69,1.34-1.22c0.31-0.52,0.47-1.13,0.47-1.83c0-0.67-0.16-1.27-0.47-1.79
		c-0.31-0.52-0.76-0.94-1.34-1.23c-0.58-0.3-1.29-0.45-2.1-0.45h-3.18h-0.48h-0.86v12.57h1.33v-5.63h1.7l4.57,5.63h1.72l-4.65-5.64
		C99.94,62.7,100.6,62.57,101.14,62.3z M95.86,56.96h3.18c0.83,0,1.46,0.22,1.9,0.65s0.66,0.99,0.66,1.67
		c0,0.71-0.22,1.27-0.66,1.69c-0.44,0.42-1.07,0.63-1.9,0.63h-3.18V56.96z"/>
	<polygon points="118.14,62.51 124.5,62.51 124.5,61.33 118.14,61.33 118.14,57.01 124.97,57.01 124.97,55.79 118.14,55.79 
		117.68,55.79 116.8,55.79 116.8,68.36 117.68,68.36 118.14,68.36 125.08,68.36 125.08,67.14 118.14,67.14 	"/>
	<polygon points="33.61,32.44 33.61,30.12 16.45,30.12 16.45,17.07 34.43,17.07 34.43,14.75 16.45,14.75 15.53,14.75 13.89,14.75 
		13.89,47.72 16.45,47.72 16.45,32.44 	"/>
	<polygon points="43.86,31.91 61.26,31.91 61.26,29.69 43.86,29.69 43.86,17.07 62.52,17.07 62.52,14.75 43.86,14.75 42.94,14.75 
		41.3,14.75 41.3,47.72 42.94,47.72 43.86,47.72 62.76,47.72 62.76,45.4 43.86,45.4 	"/>
	<rect x="69.77" y="14.75" width="2.56" height="32.97"/>
	<polygon points="105.88,14.75 102.3,14.75 83.88,30.07 83.88,14.75 81.32,14.75 81.32,47.72 83.88,47.72 83.88,31.07 102.74,47.72 
		106.36,47.72 86.84,30.51 	"/>
	<rect x="111.89" y="14.39" width="8.41" height="33.32"/>
	<polygon points="152.92,14.39 124.11,14.39 124.11,21.63 134.3,21.63 134.3,47.72 142.72,47.72 142.72,21.63 152.92,21.63 	"/>
</g>
<text transform="matrix(1 0 0 1 42.2555 184.54)" style="font-family:'Outfit-Light'; font-size:18.2764px; letter-spacing:10;">STORE</text>
<g>
	<text transform="matrix(1 0 0 1 26.1712 163.8953)" style="font-family:'Outfit-ExtraLight'; font-size:48.3409px;">FEIK</text>
	<text transform="matrix(1 0 0 1 125.7039 163.8953)" style="font-family:'Outfit-ExtraBold'; font-size:47px;">IT</text>
</g>
</svg>
